<svg width="16" height="16" viewBox="0 0 16 16" fill="none" xmlns="http://www.w3.org/2000/svg">
<path d="M10 15.6668H4C3.46957 15.6668 2.96086 15.4561 2.58579 15.081C2.21071 14.706 2 14.1973 2 13.6668V4.3335C2 3.80306 2.21071 3.29436 2.58579 2.91928C2.96086 2.54421 3.46957 2.3335 4 2.3335H10C10.5304 2.3335 11.0391 2.54421 11.4142 2.91928C11.7893 3.29436 12 3.80306 12 4.3335V13.6668C12 14.1973 11.7893 14.706 11.4142 15.081C11.0391 15.4561 10.5304 15.6668 10 15.6668ZM4 3.66683C3.82319 3.66683 3.65362 3.73707 3.5286 3.86209C3.40357 3.98712 3.33333 4.15669 3.33333 4.3335V13.6668C3.33333 13.8436 3.40357 14.0132 3.5286 14.1382C3.65362 14.2633 3.82319 14.3335 4 14.3335H10C10.1768 14.3335 10.3464 14.2633 10.4714 14.1382C10.5964 14.0132 10.6667 13.8436 10.6667 13.6668V4.3335C10.6667 4.15669 10.5964 3.98712 10.4714 3.86209C10.3464 3.73707 10.1768 3.66683 10 3.66683H4Z" fill="#B4B9BE"/>
<path d="M13.334 12.3333C13.1572 12.3333 12.9876 12.263 12.8626 12.138C12.7376 12.013 12.6673 11.8434 12.6673 11.6666V2.33325C12.6673 2.15644 12.5971 1.98687 12.4721 1.86185C12.347 1.73682 12.1775 1.66659 12.0007 1.66659H6.00065C5.82384 1.66659 5.65427 1.59635 5.52925 1.47132C5.40422 1.3463 5.33398 1.17673 5.33398 0.999919C5.33398 0.823108 5.40422 0.653538 5.52925 0.528514C5.65427 0.40349 5.82384 0.333252 6.00065 0.333252H12.0007C12.5311 0.333252 13.0398 0.543966 13.4149 0.919038C13.7899 1.29411 14.0007 1.80282 14.0007 2.33325V11.6666C14.0007 11.8434 13.9304 12.013 13.8054 12.138C13.6804 12.263 13.5108 12.3333 13.334 12.3333Z" fill="#B4B9BE"/>
</svg>
